<svg xmlns="http://www.w3.org/2000/svg" xmlns:xlink="http://www.w3.org/1999/xlink" width="100" zoomAndPan="magnify" viewBox="0 0 75 74.999997" height="100" preserveAspectRatio="xMidYMid meet" version="1.0"><defs><clipPath id="0f58ce703e"><path d="M 5.738281 3.976562 L 69.253906 3.976562 L 69.253906 67.492188 L 5.738281 67.492188 Z M 5.738281 3.976562 " clip-rule="nonzero"/></clipPath></defs><g clip-path="url(#0f58ce703e)"><path fill="#004aad" d="M 37.496094 67.492188 C 54.988281 67.492188 69.253906 53.226562 69.253906 35.734375 C 69.253906 18.242188 54.988281 3.976562 37.496094 3.976562 C 20.003906 3.976562 5.738281 18.242188 5.738281 35.734375 C 5.738281 53.226562 20.003906 67.492188 37.496094 67.492188 " fill-opacity="1" fill-rule="evenodd"/></g><path fill="#fffffe" d="M 50.746094 32.523438 L 50.746094 52.902344 L 47.886719 52.902344 L 47.886719 35.390625 L 40.015625 35.390625 L 40.015625 52.902344 L 24.992188 52.902344 L 24.992188 32.355469 C 25.511719 32.1875 26 31.917969 26.421875 31.554688 C 27.191406 32.207031 28.167969 32.5625 29.183594 32.5625 C 30.203125 32.5625 31.183594 32.203125 31.953125 31.546875 C 32.726562 32.203125 33.703125 32.5625 34.726562 32.5625 C 35.746094 32.5625 36.726562 32.203125 37.496094 31.546875 C 38.265625 32.203125 39.246094 32.5625 40.269531 32.5625 C 41.289062 32.5625 42.269531 32.203125 43.039062 31.546875 C 43.808594 32.203125 44.789062 32.5625 45.808594 32.5625 C 46.828125 32.5625 47.800781 32.207031 48.570312 31.554688 C 49.191406 32.085938 49.941406 32.414062 50.746094 32.523438 Z M 28.570312 35.390625 L 27.851562 35.390625 L 27.851562 48.007812 L 38.582031 48.007812 L 38.582031 35.390625 L 28.570312 35.390625 " fill-opacity="1" fill-rule="evenodd"/><path fill="#fffffe" d="M 26.75 18.5625 L 49.703125 18.5625 L 49.703125 23.472656 L 26.035156 23.472656 L 26.035156 18.5625 L 26.75 18.5625 " fill-opacity="1" fill-rule="nonzero"/><path fill="#fffffe" d="M 54.804688 27.40625 C 54.800781 27.558594 54.804688 27.570312 54.808594 27.585938 C 54.816406 27.609375 54.820312 27.632812 54.824219 27.660156 L 20.613281 27.660156 L 26.246094 22.171875 L 26.75 21.96875 L 48.988281 21.96875 L 49.480469 22.164062 L 54.582031 26.898438 L 54.804688 27.105469 Z M 54.863281 28.363281 L 54.863281 28.421875 C 54.863281 29.105469 54.378906 30.089844 53.644531 30.8125 C 53.03125 31.414062 52.230469 31.863281 51.351562 31.863281 C 50.445312 31.863281 49.644531 31.546875 49.035156 31.023438 C 48.867188 30.878906 48.710938 30.71875 48.574219 30.542969 C 48.4375 30.710938 48.285156 30.867188 48.117188 31.011719 C 47.5 31.542969 46.691406 31.863281 45.808594 31.863281 C 44.929688 31.863281 44.121094 31.542969 43.5 31.011719 C 43.332031 30.867188 43.175781 30.707031 43.039062 30.53125 C 42.902344 30.707031 42.746094 30.867188 42.574219 31.011719 C 41.957031 31.542969 41.148438 31.863281 40.269531 31.863281 C 39.386719 31.863281 38.578125 31.542969 37.960938 31.011719 C 37.789062 30.867188 37.632812 30.707031 37.496094 30.53125 C 37.359375 30.707031 37.203125 30.867188 37.035156 31.011719 C 36.414062 31.542969 35.605469 31.863281 34.726562 31.863281 C 33.84375 31.863281 33.035156 31.542969 32.417969 31.011719 C 32.246094 30.867188 32.09375 30.707031 31.953125 30.53125 C 31.816406 30.707031 31.660156 30.867188 31.492188 31.011719 C 30.871094 31.542969 30.0625 31.863281 29.183594 31.863281 C 28.300781 31.863281 27.492188 31.542969 26.875 31.011719 C 26.707031 30.867188 26.554688 30.710938 26.417969 30.542969 C 26.28125 30.71875 26.125 30.878906 25.957031 31.023438 C 25.347656 31.546875 24.546875 31.863281 23.640625 31.863281 C 22.695312 31.863281 21.808594 31.472656 21.164062 30.839844 C 20.53125 30.21875 20.128906 29.367188 20.128906 28.421875 L 20.128906 28.363281 L 54.863281 28.363281 " fill-opacity="1" fill-rule="nonzero"/></svg>